<svg width="20" height="20" viewBox="0 0 20 20" fill="none" xmlns="http://www.w3.org/2000/svg">
<g clip-path="url(#clip0_78_18)">
<path d="M9.99441 9.00004L17.794 1.20035C18.0687 0.925743 18.0687 0.480524 17.794 0.205954C17.5194 -0.0686162 17.0742 -0.0686513 16.7997 0.205954L8.99998 8.00565L1.20035 0.205954C0.925741 -0.0686513 0.480523 -0.0686513 0.205953 0.205954C-0.068616 0.480559 -0.0686512 0.925778 0.205953 1.20035L8.00559 9L0.205953 16.7997C-0.0686512 17.0743 -0.0686512 17.5195 0.205953 17.7941C0.343238 17.9314 0.523203 18 0.703167 18C0.883131 18 1.06306 17.9314 1.20038 17.7941L8.99998 9.99443L16.7996 17.7941C16.9369 17.9314 17.1169 18 17.2968 18C17.4768 18 17.6567 17.9314 17.794 17.7941C18.0687 17.5195 18.0687 17.0743 17.794 16.7997L9.99441 9.00004Z" fill="#171719"/>
</g>
<defs>
<clipPath id="clip0_78_18">
<rect width="20" height="20" fill="white"/>
</clipPath>
</defs>
</svg>
