<svg width="40" height="40" viewBox="0 0 40 40" fill="none" xmlns="http://www.w3.org/2000/svg">
<path d="M33.2875 5.54297C29.7352 2.37187 25.0156 0.625 20 0.625C14.9844 0.625 10.2648 2.37187 6.7125 5.54297C3.13984 8.73281 1.17188 12.9789 1.17188 17.5C1.17188 21.0898 2.40625 24.5047 4.74531 27.3938L2.58906 38.632C2.56704 38.7464 2.5774 38.8646 2.61898 38.9734C2.66056 39.0822 2.73169 39.1772 2.82437 39.2477C2.91705 39.3182 3.02759 39.3614 3.14351 39.3724C3.25944 39.3835 3.37614 39.3619 3.48047 39.3102L14.7758 33.7164C16.4824 34.1558 18.2378 34.3771 20 34.375C25.0156 34.375 29.7352 32.6281 33.2875 29.457C36.8602 26.2672 38.8281 22.0211 38.8281 17.5C38.8281 12.9789 36.8602 8.73281 33.2875 5.54297ZM20 33.125C18.2683 33.1272 16.5439 32.9 14.8719 32.4492C14.7247 32.4092 14.5679 32.4245 14.4313 32.4922L4.05391 37.6312L6.02813 27.3414C6.04554 27.2502 6.04245 27.1563 6.01907 27.0664C5.99569 26.9766 5.95262 26.893 5.89297 26.8219C3.62188 24.1125 2.42188 20.8891 2.42188 17.5C2.42188 8.88438 10.307 1.875 20 1.875C29.693 1.875 37.5781 8.88438 37.5781 17.5C37.5781 26.1156 29.693 33.125 20 33.125Z" fill="#171719"/>
<path d="M20.0781 19.375C19.7073 19.375 19.3448 19.265 19.0364 19.059C18.7281 18.853 18.4878 18.5601 18.3459 18.2175C18.2039 17.8749 18.1668 17.4979 18.2392 17.1342C18.3115 16.7705 18.4901 16.4364 18.7523 16.1742C19.0145 15.912 19.3486 15.7334 19.7123 15.661C20.0761 15.5887 20.4531 15.6258 20.7957 15.7677C21.1383 15.9096 21.4311 16.15 21.6371 16.4583C21.8432 16.7666 21.9531 17.1292 21.9531 17.5C21.9526 17.9971 21.7548 18.4737 21.4033 18.8252C21.0518 19.1767 20.5752 19.3744 20.0781 19.375V19.375ZM20.0781 16.875C19.9545 16.875 19.8337 16.9117 19.7309 16.9803C19.6281 17.049 19.548 17.1466 19.5007 17.2608C19.4534 17.375 19.441 17.5007 19.4651 17.6219C19.4893 17.7432 19.5488 17.8545 19.6362 17.9419C19.7236 18.0293 19.835 18.0889 19.9562 18.113C20.0774 18.1371 20.2031 18.1247 20.3173 18.0774C20.4315 18.0301 20.5291 17.95 20.5978 17.8472C20.6665 17.7445 20.7031 17.6236 20.7031 17.5C20.7029 17.3343 20.637 17.1754 20.5199 17.0583C20.4027 16.9411 20.2438 16.8752 20.0781 16.875V16.875Z" fill="#171719"/>
<path d="M13.8281 19.375C13.4573 19.375 13.0948 19.265 12.7864 19.059C12.4781 18.853 12.2378 18.5601 12.0959 18.2175C11.9539 17.8749 11.9168 17.4979 11.9892 17.1342C12.0615 16.7705 12.2401 16.4364 12.5023 16.1742C12.7645 15.912 13.0986 15.7334 13.4623 15.661C13.826 15.5887 14.203 15.6258 14.5457 15.7677C14.8883 15.9096 15.1811 16.15 15.3871 16.4583C15.5932 16.7666 15.7031 17.1292 15.7031 17.5C15.7025 17.9971 15.5048 18.4737 15.1533 18.8252C14.8018 19.1767 14.3252 19.3744 13.8281 19.375V19.375ZM13.8281 16.875C13.7045 16.875 13.5837 16.9117 13.4809 16.9803C13.3781 17.049 13.298 17.1466 13.2507 17.2608C13.2034 17.375 13.191 17.5007 13.2151 17.6219C13.2392 17.7432 13.2988 17.8545 13.3862 17.9419C13.4736 18.0293 13.585 18.0889 13.7062 18.113C13.8274 18.1371 13.9531 18.1247 14.0673 18.0774C14.1815 18.0301 14.2791 17.95 14.3478 17.8472C14.4165 17.7445 14.4531 17.6236 14.4531 17.5C14.4529 17.3343 14.387 17.1754 14.2699 17.0583C14.1527 16.9411 13.9938 16.8752 13.8281 16.875V16.875Z" fill="#171719"/>
<path d="M26.3281 15.625C25.9573 15.625 25.5948 15.735 25.2864 15.941C24.9781 16.147 24.7378 16.4399 24.5959 16.7825C24.4539 17.1251 24.4168 17.5021 24.4892 17.8658C24.5615 18.2295 24.7401 18.5636 25.0023 18.8258C25.2645 19.088 25.5986 19.2666 25.9623 19.339C26.3261 19.4113 26.703 19.3742 27.0457 19.2323C27.3883 19.0904 27.6811 18.85 27.8871 18.5417C28.0932 18.2333 28.2031 17.8708 28.2031 17.5C28.2025 17.0029 28.0047 16.5264 27.6532 16.1749C27.3017 15.8234 26.8252 15.6257 26.3281 15.625V15.625ZM26.3281 18.125C26.2045 18.125 26.0837 18.0883 25.9809 18.0197C25.8781 17.951 25.798 17.8534 25.7507 17.7392C25.7034 17.625 25.691 17.4993 25.7151 17.3781C25.7393 17.2568 25.7988 17.1455 25.8862 17.0581C25.9736 16.9706 26.085 16.9111 26.2062 16.887C26.3274 16.8629 26.4531 16.8753 26.5673 16.9226C26.6815 16.9699 26.7791 17.05 26.8478 17.1528C26.9165 17.2555 26.9531 17.3764 26.9531 17.5C26.9529 17.6657 26.887 17.8245 26.7698 17.9417C26.6527 18.0588 26.4938 18.1248 26.3281 18.125V18.125Z" fill="#171719"/>
</svg>
