<svg width="40" height="38" viewBox="0 0 40 38" fill="none" xmlns="http://www.w3.org/2000/svg">
<path d="M39.9498 6.46438C39.9498 5.2354 38.9476 4.23555 37.7155 4.23555C36.4834 4.23555 35.4813 5.2354 35.4813 6.46438C35.4813 7.69337 36.4834 8.69321 37.7155 8.69321C37.7652 8.69321 37.8147 8.69102 37.8638 8.68774C38.2306 9.87798 38.4164 11.1172 38.4164 12.3918C38.4164 18.5517 33.967 23.6949 28.1027 24.7997C28.1365 24.407 28.1547 24.0099 28.1547 23.6086C28.1547 22.8445 28.0916 22.0773 27.9672 21.3284C27.6945 19.6879 27 18.0002 26.5 19.0002C26.1665 19.0556 26.7038 21.1956 26.7593 21.5291C26.8727 22.2117 26.9302 22.9114 26.9302 23.6086C26.9302 24.0688 26.9047 24.5232 26.8563 24.9709C26.4895 25.0028 26.1184 25.0201 25.7434 25.0201C18.7556 25.0201 13.0705 19.3551 13.0705 12.3918C13.0705 11.9331 13.0959 11.4788 13.1438 11.0296C13.5109 10.9976 13.8821 10.9803 14.2574 10.9803C19.6341 10.9803 24.4414 14.3752 26.2197 19.4281C26.5 20.5002 26.7736 21.6173 27.3746 21.5291C28.1547 21.3284 27.487 19.3406 27.3746 19.0216C25.4242 13.4795 20.1528 9.75587 14.2574 9.75587C13.9488 9.75587 13.6428 9.76704 13.3391 9.78688C13.9484 6.87079 15.5752 4.25977 18.0065 2.38946C20.5 0.500208 20.2061 0.768176 20 0.500208C19.7941 0.232239 19.5 0.000244141 17.2598 1.41883C14.4838 3.5543 12.6639 6.57071 12.0641 9.92891C5.4393 10.9803 0.359766 16.714 0.359766 23.6086C0.359766 25.0261 0.568984 26.4041 0.982891 27.7267C0.419062 28.1317 0.0507812 28.7916 0.0507812 29.5361C0.0507812 30.7651 1.05305 31.7649 2.28516 31.7649C3.51719 31.7649 4.51938 30.7651 4.51938 29.5361C4.51938 28.3071 3.51719 27.3073 2.28516 27.3073C2.23539 27.3073 2.18594 27.3095 2.13688 27.3127C1.77 26.1224 1.58414 24.8832 1.58414 23.6086C1.58414 17.4491 6.03274 12.3065 11.8963 11.2009C11.863 11.5946 11.8458 11.9918 11.8458 12.3918C11.8458 20.0302 18.0802 26.2445 25.7433 26.2445C26.0508 26.2445 26.3557 26.2334 26.6582 26.2137C25.45 31.9313 20.349 36.2368 14.2571 36.2368C13.2273 36.2368 12.2177 36.1137 11.2364 35.8742C11.238 35.84 11.239 35.8058 11.239 35.7713C11.239 34.5424 10.2368 33.5425 9.00484 33.5425C7.77274 33.5425 6.77047 34.5424 6.77047 35.7713C6.77047 37.0003 7.77281 38.0003 9.00492 38.0003C9.76508 38.0003 10.4373 37.6192 10.841 37.0391C11.9497 37.319 13.0919 37.4614 14.2572 37.4614C21.077 37.4614 26.7652 32.5394 27.9345 26.0719C34.5601 25.0213 39.6409 19.2872 39.6409 12.3918C39.6409 10.9743 39.4316 9.59634 39.0177 8.27376C39.5817 7.86884 39.9498 7.20891 39.9498 6.46438ZM2.28516 28.5318C2.84188 28.5317 3.29484 28.9823 3.29484 29.5361C3.29484 30.0899 2.84188 30.5404 2.28516 30.5404C1.72836 30.5404 1.27531 30.0899 1.27531 29.5361C1.27523 28.9824 1.72828 28.5318 2.28516 28.5318ZM9.005 36.7757C8.4482 36.7757 7.99516 36.3252 7.99516 35.7714C7.99516 35.2176 8.4482 34.7671 9.005 34.7671C9.56172 34.7671 10.0146 35.2177 10.0146 35.7714C10.0146 36.3253 9.56172 36.7757 9.005 36.7757ZM37.7155 7.46876C37.1588 7.46876 36.7058 7.01821 36.7058 6.46446C36.7058 5.91063 37.1588 5.46016 37.7155 5.46016C38.2723 5.46016 38.7253 5.91071 38.7253 6.46446C38.7254 7.01821 38.2723 7.46876 37.7155 7.46876Z" fill="#171719"/>
</svg>
