<svg width="40" height="40" viewBox="0 0 40 40" fill="none" xmlns="http://www.w3.org/2000/svg">
<g clip-path="url(#clip0_35_811)">
<path d="M37.0869 5.42632C35.0209 2.99346 32.1619 1.55027 29.0364 1.36244C25.6719 1.1604 22.3849 2.44969 20.0182 4.89988C20.0079 4.91051 19.9921 4.91043 19.9819 4.89988C17.6152 2.44961 14.3283 1.16033 10.9636 1.36244C7.83811 1.55027 4.97914 2.99346 2.9131 5.42632C0.759791 7.96206 -0.278541 11.3243 0.0643664 14.651C0.587673 19.7275 3.52571 24.9721 8.7969 30.2392C12.9346 34.3737 17.3231 37.3036 19.0179 38.3714C19.3208 38.5622 19.6604 38.6576 20 38.6576C20.3397 38.6576 20.6792 38.5622 20.9821 38.3714C22.6769 37.3036 27.0654 34.3737 31.2031 30.2392C36.4743 24.9721 39.4123 19.7276 39.9356 14.651C40.2785 11.3243 39.2402 7.96206 37.0869 5.42632ZM38.7699 14.5308C38.2749 19.3324 35.4504 24.3385 30.3747 29.4102C29.2553 30.5287 28.1173 31.5567 27.021 32.4819C27.0127 32.4855 27.0043 32.4887 26.9961 32.4929C26.3246 32.8285 25.8989 32.4821 25.747 32.3176C25.4502 31.9961 25.3002 31.4241 25.6343 30.8712C29.1806 24.9999 28.1986 21.9624 28.1551 21.836C28.0617 21.5649 27.786 21.401 27.5033 21.4491L25.6633 21.7604C25.7544 16.4908 24.0246 13.0446 22.5194 11.0553C20.7962 8.77812 19.0053 7.86636 18.9299 7.8287C18.7469 7.73713 18.5294 7.74776 18.356 7.85667C18.1828 7.96558 18.0789 8.15692 18.082 8.36154C18.1397 12.2281 16.1893 15.6831 15.3019 17.0509L14.1878 15.6651C14.0698 15.5184 13.8888 15.4369 13.7006 15.447C13.5126 15.4568 13.3408 15.5563 13.2387 15.7146C13.2216 15.741 12.8148 16.3746 12.3554 17.3474C12.2172 17.64 12.3424 17.9893 12.6351 18.1274C12.9277 18.2656 13.277 18.1405 13.4151 17.8478C13.5556 17.5503 13.6913 17.2862 13.8101 17.0657L14.8808 18.3975C14.992 18.5359 15.16 18.6163 15.3375 18.6163C15.3395 18.6163 15.3416 18.6163 15.3436 18.6163C15.5233 18.6145 15.6922 18.5302 15.8018 18.3879C15.9365 18.213 18.8973 14.3126 19.2256 9.40846C19.8512 9.86958 20.7508 10.6484 21.6236 11.8141C23.0613 13.7343 24.7221 17.1348 24.469 22.4299C24.4606 22.6071 24.5327 22.7786 24.6655 22.8962C24.7982 23.0139 24.9769 23.065 25.1521 23.0356L27.1225 22.7022C27.2037 23.6984 27.0699 26.2277 24.6311 30.2653C24.0695 31.195 24.1719 32.3393 24.886 33.1127C25.0996 33.3439 25.3456 33.5186 25.6119 33.635C24.9588 34.1535 24.3324 34.6296 23.7472 35.0598C23.3444 34.7209 22.5677 33.7054 23.1568 31.1573C23.752 28.5833 22.8406 26.8445 21.9713 25.8392C21.0386 24.7605 19.9635 24.29 19.9182 24.2704C19.7189 24.1846 19.4884 24.2161 19.3193 24.3521C19.1501 24.4881 19.0701 24.7065 19.1112 24.9196C19.4016 26.4259 18.8443 27.5343 18.2543 28.7077C17.5439 30.1205 16.7387 31.7219 17.5971 34.0007C17.7112 34.3035 18.0494 34.4565 18.3521 34.3425C18.6549 34.2284 18.8079 33.8904 18.6939 33.5875C18.0165 31.7895 18.612 30.6054 19.3014 29.2342C19.7821 28.2782 20.3124 27.2236 20.3593 25.9173C20.5924 26.1001 20.8453 26.3286 21.0849 26.6057C22.091 27.7692 22.404 29.2117 22.0151 30.8933C21.3745 33.6637 22.136 35.0842 22.7831 35.7547C21.7542 36.4817 20.9095 37.0321 20.3575 37.3799C20.1371 37.5187 19.8631 37.5187 19.6427 37.3799C18.6749 36.7702 16.8104 35.5401 14.6215 33.8193C14.8774 33.7028 15.1123 33.53 15.315 33.3024C16.0155 32.5155 16.0794 31.3367 15.4704 30.4361L15.3569 30.2683C13.4135 27.3954 11.735 24.9144 12.3248 21.1914C12.3731 20.8866 13.4038 17.9694 13.4889 17.645C13.5711 17.3321 13.3841 17.0116 13.071 16.9295C12.7581 16.8471 12.4376 17.0343 12.3554 17.3474C12.2604 17.7092 11.2216 20.665 11.1673 21.0081C10.5052 25.1879 12.3904 27.9746 14.3862 30.925L14.4995 31.0925C14.8595 31.6249 14.7208 32.2075 14.4395 32.5233C14.1394 32.8606 13.6934 32.9156 13.2123 32.6776C12.0446 31.7024 10.8243 30.6085 9.62538 29.4104C4.54958 24.3385 1.72507 19.3323 1.23013 14.5308C0.919799 11.5204 1.85883 8.47842 3.80642 6.18495C5.66362 3.99796 8.23039 2.70071 11.0339 2.53235C11.2501 2.51938 11.4653 2.51289 11.6795 2.51289C14.5029 2.51289 17.1313 3.63568 19.1389 5.71414C19.3623 5.94532 19.6761 6.07799 19.9999 6.07799C20.3239 6.07799 20.6377 5.9454 20.861 5.71414C23.021 3.47802 25.8997 2.34804 28.9661 2.53235C31.7696 2.70079 34.3364 3.99796 36.1936 6.18495C38.1411 8.47834 39.0802 11.5204 38.7699 14.5308Z" fill="#171719"/>
</g>
<defs>
<clipPath id="clip0_35_811">
<rect width="40" height="40" fill="white"/>
</clipPath>
</defs>
</svg>
