<svg width="20" height="20" viewBox="0 0 20 20" fill="none" xmlns="http://www.w3.org/2000/svg">
<path d="M0.624984 4.37497H19.375C19.72 4.37497 19.9999 4.09495 19.9999 3.74998C19.9999 3.40497 19.7199 3.125 19.375 3.125H0.624984C0.280022 3.125 0 3.40497 0 3.74998C0 4.095 0.280022 4.37497 0.624984 4.37497Z" fill="#171719"/>
<path d="M19.375 9.375H0.624984C0.27997 9.375 0 9.65502 0 9.99998C0 10.3449 0.280022 10.625 0.624984 10.625H19.375C19.72 10.625 19.9999 10.3449 19.9999 9.99998C19.9999 9.65502 19.72 9.375 19.375 9.375Z" fill="#171719"/>
<path d="M19.375 15.625H0.624984C0.27997 15.625 0 15.905 0 16.25C0 16.595 0.280022 16.875 0.624984 16.875H19.375C19.72 16.875 19.9999 16.5949 19.9999 16.25C20 15.905 19.72 15.625 19.375 15.625Z" fill="#171719"/>
</svg>
